<svg width="24" height="10" viewBox="0 0 24 10" fill="none" xmlns="http://www.w3.org/2000/svg">
<path d="M4.38521 1.27045C4.10396 1.60327 3.65387 1.86586 3.20382 1.82831C3.14757 1.37831 3.36788 0.900094 3.62574 0.604734C3.90699 0.262547 4.39928 0.01875 4.79776 0C4.84463 0.468797 4.66178 0.928219 4.38521 1.27045ZM4.79312 1.91742C4.14146 1.87992 3.5836 2.28773 3.27418 2.28773C2.96012 2.28773 2.48659 1.93617 1.97092 1.94555C1.30056 1.95492 0.677025 2.33461 0.334791 2.93939C-0.368428 4.14891 0.151978 5.93977 0.831712 6.92423C1.16457 7.41178 1.56306 7.9462 2.0881 7.92745C2.58507 7.9087 2.78195 7.60402 3.38204 7.60402C3.98678 7.60402 4.16026 7.92745 4.68531 7.91808C5.2291 7.9087 5.57134 7.43058 5.9042 6.94298C6.28388 6.38981 6.43862 5.85066 6.44799 5.82253C6.43862 5.81316 5.3979 5.41472 5.38853 4.21453C5.37915 3.21131 6.20893 2.73314 6.24643 2.70502C5.77759 2.01117 5.04629 1.93617 4.79312 1.91742ZM8.55765 0.557859V7.86656H9.69212V5.36784H11.2626C12.6971 5.36784 13.7051 4.38338 13.7051 2.95819C13.7051 1.53305 12.7159 0.557906 11.3001 0.557906L8.55765 0.557859ZM9.69212 1.51425H11.0001C11.9846 1.51425 12.5471 2.0393 12.5471 2.96283C12.5471 3.88636 11.9846 4.41614 10.9954 4.41614H9.69212V1.51425ZM15.7772 7.92277C16.4897 7.92277 17.1507 7.56183 17.4508 6.98986H17.4742V7.86652H18.5244V4.22859C18.5244 3.17381 17.6805 2.49403 16.3819 2.49403C15.1771 2.49403 14.2863 3.18319 14.2535 4.13016H15.2755C15.3599 3.68011 15.7771 3.38475 16.3491 3.38475C17.0429 3.38475 17.432 3.70823 17.432 4.30364V4.70677L16.0162 4.79114C14.6989 4.87083 13.9863 5.40998 13.9863 6.34763C13.9863 7.29459 14.7223 7.92277 15.7772 7.92277ZM16.0818 7.05548C15.4772 7.05548 15.0927 6.76486 15.0927 6.31945C15.0927 5.86008 15.463 5.59284 16.1709 5.55066L17.432 5.47097V5.88347C17.432 6.56794 16.8507 7.05548 16.0819 7.05548M19.9261 9.85425C21.0325 9.85425 21.5529 9.43237 22.0076 8.1525L24 2.56434H22.8467L21.5106 6.882H21.4872L20.1511 2.56434H18.965L20.8871 7.88527L20.784 8.20875C20.6105 8.75723 20.3292 8.96822 19.8276 8.96822C19.7386 8.96822 19.5651 8.95884 19.4948 8.94947V9.82612C19.5604 9.84487 19.8416 9.85425 19.9261 9.85425" fill="black"/>
</svg>
