<svg width="15" height="13" viewBox="0 0 15 13" fill="none" xmlns="http://www.w3.org/2000/svg">
<path d="M5.39115 11.1679L5.85547 10.5789L5.39115 11.1679ZM7.41667 2.22776L6.8763 2.74786C7.01769 2.89475 7.21278 2.97776 7.41667 2.97776C7.62055 2.97776 7.81565 2.89475 7.95703 2.74786L7.41667 2.22776ZM9.44218 11.1679L9.90649 11.7569L9.44218 11.1679ZM5.39115 11.1679L5.85547 10.5789C4.8302 9.77069 3.75302 9.01312 2.89579 8.04784C2.06426 7.11152 1.5 6.03898 1.5 4.65207H0.75H0C0 6.50711 0.775544 7.91934 1.77422 9.04388C2.74718 10.1395 3.99058 11.0188 4.92684 11.7569L5.39115 11.1679ZM0.75 4.65207H1.5C1.5 3.31169 2.25702 2.20062 3.27017 1.7375C4.23604 1.296 5.5683 1.38889 6.8763 2.74786L7.41667 2.22776L7.95703 1.70766C6.26514 -0.0501592 4.26407 -0.366088 2.64658 0.37327C1.07637 1.09102 0 2.75049 0 4.65207H0.75ZM5.39115 11.1679L4.92684 11.7569C5.26603 12.0243 5.64607 12.3225 6.03508 12.5498C6.42386 12.777 6.89293 12.9773 7.41667 12.9773V12.2273V11.4773C7.27373 11.4773 7.07614 11.4208 6.79187 11.2547C6.50784 11.0887 6.20846 10.8572 5.85547 10.5789L5.39115 11.1679ZM9.44218 11.1679L9.90649 11.7569C10.8428 11.0188 12.0862 10.1395 13.0591 9.04388C14.0578 7.91934 14.8333 6.50711 14.8333 4.65207H14.0833H13.3333C13.3333 6.03898 12.7691 7.11152 11.9375 8.04784C11.0803 9.01312 10.0031 9.77069 8.97786 10.5789L9.44218 11.1679ZM14.0833 4.65207H14.8333C14.8333 2.75049 13.757 1.09102 12.1868 0.37327C10.5693 -0.366088 8.56819 -0.0501592 6.8763 1.70766L7.41667 2.22776L7.95703 2.74786C9.26503 1.38889 10.5973 1.296 11.5632 1.7375C12.5763 2.20062 13.3333 3.31169 13.3333 4.65207H14.0833ZM9.44218 11.1679L8.97786 10.5789C8.62488 10.8572 8.32549 11.0887 8.04146 11.2547C7.75719 11.4208 7.5596 11.4773 7.41667 11.4773V12.2273V12.9773C7.9404 12.9773 8.40947 12.777 8.79825 12.5498C9.18727 12.3225 9.5673 12.0243 9.90649 11.7569L9.44218 11.1679Z" fill="#1C274C"/>
</svg>
