<svg width="22" height="22" viewBox="0 0 22 22" fill="none" xmlns="http://www.w3.org/2000/svg">
<path fill-rule="evenodd" clip-rule="evenodd" d="M21.7803 0.21967C22.0732 0.512563 22.0732 0.987437 21.7803 1.28033L1.78033 21.2803C1.48744 21.5732 1.01256 21.5732 0.71967 21.2803C0.426777 20.9874 0.426777 20.5126 0.71967 20.2197L4.44121 16.4981C3.55803 16.4886 2.88551 16.4359 2.27496 16.1534C1.58016 15.832 0.911414 15.2027 0.548282 14.5288C0.155663 13.8001 0.109593 13.0381 0.0440874 11.9545C0.0414893 11.9115 0.0388606 11.8681 0.0361785 11.8241C0.013733 11.4558 0 11.0916 0 10.75C0 10.4085 0.013733 10.0443 0.0361785 9.676C0.0388606 9.632 0.0414893 9.58852 0.0440874 9.54554C0.109593 8.462 0.155663 7.69996 0.548282 6.97128C0.911414 6.29732 1.58016 5.6681 2.27496 5.34664C3.02659 4.99889 3.87215 4.99933 5.08906 4.99998C5.14202 5 5.19569 5.00003 5.25008 5.00003C5.7866 5.00003 5.96956 4.99762 6.14132 4.96862C6.3252 4.93757 6.50452 4.88378 6.67513 4.80848C6.83448 4.73815 6.98856 4.63944 7.43647 4.34411L7.70324 4.16822C8.93412 3.35663 9.92124 2.70576 10.7348 2.31055C11.5608 1.90928 12.3741 1.6861 13.1923 1.96531C13.4642 2.05809 13.7259 2.19128 13.9609 2.35646C14.6003 2.80581 14.9052 3.49135 15.077 4.27977C15.1646 4.68197 15.2246 5.14532 15.2705 5.66886L20.7197 0.21967C21.0126 -0.0732233 21.4874 -0.0732233 21.7803 0.21967ZM13.8604 7.07893C13.8028 5.97797 13.7389 5.18466 13.6114 4.59912C13.4754 3.97532 13.2943 3.72136 13.0985 3.5837C12.9797 3.50023 12.8452 3.43181 12.7078 3.38492C12.4587 3.29989 12.1025 3.31376 11.3902 3.65978C10.676 4.00675 9.7709 4.60164 8.4811 5.45206L8.26216 5.59641C8.2455 5.60739 8.22906 5.61824 8.21284 5.62894C7.83264 5.87973 7.56931 6.05343 7.28077 6.18078C6.99641 6.30627 6.69756 6.39593 6.39108 6.44768C6.08009 6.5002 5.76464 6.50013 5.30917 6.50004C5.28973 6.50004 5.27004 6.50003 5.25008 6.50003C3.80641 6.50003 3.31911 6.51631 2.9048 6.708C2.50445 6.89323 2.07804 7.29443 1.8688 7.68278C1.65052 8.08789 1.61045 8.50309 1.5334 9.76726C1.51225 10.1142 1.5 10.4468 1.5 10.75C1.5 11.0533 1.51225 11.3858 1.5334 11.7328C1.61045 12.997 1.65052 13.4122 1.8688 13.8173C2.07804 14.2056 2.50445 14.6068 2.9048 14.7921C3.31911 14.9838 3.80641 15 5.25008 15C5.27004 15 5.28973 15 5.30917 15C5.54891 15 5.74985 14.9999 5.93178 15.0076L13.8604 7.07893ZM19.5145 5.0664C19.892 4.89605 20.3362 5.06403 20.5065 5.4416C20.9736 6.47674 21.5 8.20958 21.5 10.75C21.5 12.9416 21.1082 14.5329 20.7 15.5942C20.4962 16.124 20.2894 16.5192 20.1275 16.789C20.0466 16.9238 19.977 17.0272 19.9248 17.1004C19.8986 17.1369 19.8769 17.1659 19.8602 17.1875C19.8518 17.1983 19.8448 17.2072 19.8391 17.2143L19.8316 17.2236L19.8286 17.2272L19.8273 17.2288C19.827 17.2291 19.8262 17.2301 19.25 16.75L19.8262 17.2301C19.561 17.5483 19.0881 17.5913 18.7699 17.3262C18.4532 17.0623 18.4091 16.5926 18.67 16.2744C18.6707 16.2737 18.6718 16.2722 18.6735 16.27C18.6788 16.2632 18.6893 16.2494 18.7042 16.2285C18.7339 16.1868 18.7815 16.1168 18.8413 16.0173C18.9606 15.8183 19.1288 15.501 19.3 15.0558C19.6418 14.1671 20 12.7584 20 10.75C20 8.42366 19.5194 6.90099 19.1393 6.05849C18.9689 5.68093 19.1369 5.23676 19.5145 5.0664ZM17.414 8.01566C17.8196 7.93146 18.2166 8.19198 18.3008 8.59754C18.4109 9.12802 18.5 9.83894 18.5 10.75C18.5 11.8601 18.3678 12.6728 18.2265 13.2238C18.1559 13.499 18.0833 13.7079 18.0245 13.8551C17.9951 13.9287 17.9691 13.9867 17.9486 14.0297C17.9384 14.0512 17.9295 14.0689 17.9223 14.083L17.9126 14.1014L17.9088 14.1085L17.9071 14.1115L17.9063 14.1129C17.9062 14.1132 17.9056 14.1142 17.2776 13.7653L17.9056 14.1142C17.7045 14.4763 17.2479 14.6068 16.8858 14.4056C16.5268 14.2062 16.3955 13.7556 16.5893 13.395L16.5943 13.3848C16.6012 13.3704 16.6143 13.3417 16.6318 13.298C16.6667 13.2108 16.7191 13.0635 16.7735 12.8512C16.8822 12.4272 17 11.7399 17 10.75C17 9.93728 16.9206 9.3287 16.8321 8.90246C16.7479 8.49689 17.0084 8.09986 17.414 8.01566ZM14.75 10C15.1642 10 15.5 10.3358 15.5 10.75C15.5 11.302 15.4637 12.2753 15.4119 13.3902L15.4092 13.4477C15.3414 14.9076 15.287 16.0796 15.1278 16.9639C14.9659 17.8634 14.667 18.6474 13.9609 19.1436C13.7259 19.3088 13.4642 19.442 13.1923 19.5348C12.4503 19.788 11.7127 19.6273 10.9704 19.299C10.2375 18.9748 9.37771 18.4308 8.33893 17.7501C7.99247 17.5231 7.89566 17.0582 8.12269 16.7117C8.34972 16.3653 8.81462 16.2684 9.16107 16.4955C10.2198 17.1893 10.9764 17.6614 11.5772 17.9272C12.1687 18.1889 12.4824 18.1921 12.7078 18.1151C12.8452 18.0683 12.9797 17.9998 13.0985 17.9164C13.3151 17.7641 13.5126 17.4695 13.6515 16.6982C13.791 15.9233 13.8424 14.8514 13.9135 13.3206C13.9656 12.201 14 11.2618 14 10.75C14 10.3358 14.3358 10 14.75 10Z" fill="#05162C"/>
</svg>
