<svg width="14" height="15" viewBox="0 0 14 15" fill="none" xmlns="http://www.w3.org/2000/svg">
<path fill-rule="evenodd" clip-rule="evenodd" d="M6.72333 0C3.86986 0 1.55667 2.3132 1.55667 5.16667V5.63607C1.55667 6.10068 1.41914 6.5549 1.16142 6.94148L0.395684 8.09009C-0.493047 9.42318 0.185424 11.2352 1.73115 11.6568C2.23489 11.7941 2.74289 11.9104 3.25383 12.0054L3.25509 12.0088C3.76775 13.3767 5.13796 14.3333 6.72329 14.3333C8.30862 14.3333 9.67883 13.3767 10.1915 12.0088L10.1927 12.0054C10.7037 11.9104 11.2117 11.7941 11.7155 11.6568C13.2612 11.2352 13.9397 9.42318 13.051 8.09009L12.2852 6.94148C12.0275 6.5549 11.89 6.10068 11.89 5.63607V5.16667C11.89 2.3132 9.5768 0 6.72333 0ZM8.97427 12.1913C7.47897 12.37 5.9676 12.37 4.4723 12.1913C4.94627 12.8723 5.77065 13.3333 6.72329 13.3333C7.67593 13.3333 8.5003 12.8723 8.97427 12.1913ZM2.55667 5.16667C2.55667 2.86548 4.42215 1 6.72333 1C9.02452 1 10.89 2.86548 10.89 5.16667V5.63607C10.89 6.29811 11.086 6.94533 11.4532 7.49618L12.2189 8.64479C12.729 9.40996 12.3396 10.45 11.4524 10.692C8.35623 11.5364 5.09044 11.5364 1.99427 10.692C1.10705 10.45 0.717618 9.40996 1.22773 8.64479L1.99347 7.49618C2.3607 6.94533 2.55667 6.29811 2.55667 5.63607V5.16667Z" fill="black"/>
</svg>
