<svg width="24" height="24" viewBox="0 0 24 24" fill="none" xmlns="http://www.w3.org/2000/svg">
<path d="M9.93003 12.99C10.03 12.99 12.35 13.09 13.73 12.75H13.74C15.33 12.36 17.54 11.24 18.11 7.58C18.11 7.58 19.38 3 13.08 3H7.67003C7.18003 3 6.76003 3.36 6.68003 3.84L4.38003 18.4C4.33003 18.7 4.57003 18.98 4.87003 18.98H8.30003L9.14003 13.66C9.20003 13.28 9.53003 12.99 9.93003 12.99Z" fill="#011F63"/>
<path d="M18.9901 8.29004C18.1801 12.02 15.6301 13.99 11.5701 13.99H10.1001L9.07005 20.51C9.03005 20.77 9.23005 21 9.49005 21H11.3901C11.7301 21 12.0301 20.75 12.0801 20.41C12.1601 20.01 12.6001 17.09 12.6901 16.59C12.7401 16.25 13.0401 16 13.3801 16H13.8201C16.6401 16 18.8501 14.85 19.5001 11.54C19.7601 10.2 19.6201 9.10004 18.9901 8.29004Z" fill="#0296D7"/>
</svg>
