<svg width="22" height="22" viewBox="0 0 22 22" fill="none" xmlns="http://www.w3.org/2000/svg">
<path fill-rule="evenodd" clip-rule="evenodd" d="M15.2246 3.12519L18.3974 6.3012C19.4049 7.30966 20.2213 8.1269 20.7469 8.83613C21.2882 9.56661 21.6381 10.3358 21.4482 11.2138C21.2583 12.092 20.6218 12.6477 19.8271 13.0888C19.0555 13.517 17.9745 13.9232 16.6406 14.4243L14.6636 15.1671C13.8692 15.4656 13.6528 15.5586 13.492 15.6979C13.4111 15.7679 13.3387 15.8472 13.2763 15.9342C13.1521 16.1073 13.079 16.3317 12.8537 17.1505L12.8414 17.1954C12.6127 18.0267 12.4239 18.7128 12.2171 19.2279C12.0073 19.7508 11.724 20.246 11.215 20.5365C10.8614 20.7383 10.4612 20.8441 10.0541 20.8435C9.46789 20.8426 8.97702 20.5519 8.53647 20.201C8.10243 19.8553 7.5997 19.3521 6.99065 18.7424L5.40338 17.1535L1.2806 21.2805C0.987856 21.5735 0.512982 21.5738 0.21994 21.281C-0.0731024 20.9883 -0.0733441 20.5134 0.2194 20.2203L4.34326 16.0923L2.80842 14.5559C2.20318 13.9501 1.7036 13.45 1.36002 13.0183C1.01127 12.5801 0.722153 12.0926 0.718476 11.5104C0.715856 11.0956 0.823541 10.6876 1.03053 10.3282C1.32116 9.82356 1.81341 9.54244 2.33296 9.33386C2.84477 9.12839 3.52597 8.94061 4.35112 8.71313L4.3957 8.70084C5.21601 8.47469 5.44053 8.40137 5.61346 8.27687C5.7026 8.21269 5.7837 8.13797 5.85499 8.05432C5.99338 7.89193 6.08502 7.67373 6.37798 6.87416L7.09447 4.9186C7.58874 3.56949 7.98907 2.47678 8.41362 1.69659C8.85051 0.893723 9.404 0.2486 10.2857 0.0540795C11.1675 -0.14047 11.9408 0.212053 12.6746 0.75679C13.3875 1.28608 14.2097 2.10912 15.2246 3.12519ZM11.7804 1.96115C11.1777 1.51371 10.8586 1.46376 10.6088 1.51885C10.359 1.57398 10.0902 1.75379 9.73118 2.41355C9.36611 3.08443 9.00248 4.07115 8.48087 5.49479L7.78642 7.3902C7.77304 7.4267 7.75987 7.46275 7.74686 7.49835C7.51267 8.13908 7.33179 8.634 6.99665 9.02726C6.84712 9.20272 6.67696 9.35951 6.48987 9.4942C6.0705 9.79613 5.56257 9.93573 4.90537 10.1164C4.86884 10.1264 4.83184 10.1366 4.79438 10.1469C3.91337 10.3898 3.31523 10.5559 2.8918 10.7259C2.46693 10.8964 2.365 11.0167 2.33038 11.0768C2.25616 11.2057 2.21751 11.352 2.21845 11.5009C2.21889 11.5706 2.24835 11.7257 2.53366 12.0842C2.81799 12.4414 3.25615 12.8817 3.90229 13.5285L8.01897 17.6493C8.66923 18.3003 9.11182 18.7417 9.47098 19.0277C9.83141 19.3148 9.98691 19.3434 10.0564 19.3435C10.2019 19.3437 10.345 19.3059 10.4715 19.2337C10.5321 19.1991 10.6533 19.0971 10.8251 18.6692C10.9962 18.2428 11.1633 17.6401 11.4074 16.7526C11.4177 16.7152 11.4278 16.6783 11.4378 16.6419C11.6178 15.9857 11.7569 15.4788 12.0575 15.0598C12.1884 14.8773 12.3403 14.7109 12.51 14.5639C12.9 14.2263 13.392 14.0418 14.0286 13.8032C14.064 13.79 14.0998 13.7766 14.136 13.7629L16.0532 13.0426C17.4612 12.5136 18.4365 12.145 19.0991 11.7772C19.7501 11.4159 19.928 11.1472 19.9821 10.8968C20.0363 10.6463 19.9853 10.3278 19.5417 9.72919C19.0903 9.11994 18.3545 8.38062 17.291 7.31609L14.2088 4.23067C13.1376 3.15841 12.3933 2.4162 11.7804 1.96115Z" fill="#05162C"/>
</svg>
