<svg width="10" height="14" viewBox="0 0 10 14" fill="none" xmlns="http://www.w3.org/2000/svg">
<path d="M7.88 8.98999C7.63676 8.86776 7.34043 8.96258 7.21333 9.20332C7.09589 9.44857 7.19298 9.74281 7.43333 9.86999C8.02 10.17 8.35333 10.5367 8.35333 10.89C8.35333 11.6433 6.78 12.4833 4.67333 12.4833C2.56667 12.4833 0.986667 11.65 0.986667 10.9167C0.986667 10.57 1.32 10.1967 1.90667 9.89665C2.0826 9.82611 2.20352 9.66215 2.21893 9.47323C2.23434 9.2843 2.1416 9.10291 1.97943 9.00478C1.81725 8.90666 1.61353 8.90867 1.45333 9.00999C0.643932 9.31505 0.0796519 10.0553 0 10.9167C0 12.3967 2 13.51 4.66667 13.51C7.33333 13.51 9.33333 12.3967 9.33333 10.9167C9.26103 10.0479 8.6955 9.29815 7.88 8.98999Z" fill="#6D7379"/>
<path fill-rule="evenodd" clip-rule="evenodd" d="M4.16667 11.21V8.32999C1.97126 8.06548 0.361685 6.13686 0.494177 3.92955C0.626668 1.72224 2.45539 0 4.66667 0C6.87795 0 8.70666 1.72224 8.83916 3.92955C8.97165 6.13686 7.36207 8.06548 5.16667 8.32999V11.21C5.16667 11.4861 4.94281 11.71 4.66667 11.71C4.39052 11.71 4.16667 11.4861 4.16667 11.21ZM7.61615 2.96075C7.1212 1.76937 5.95676 0.993958 4.66667 0.996654C2.91192 1.00032 1.49034 2.42191 1.48667 4.17665C1.48397 5.46675 2.25939 6.63119 3.45077 7.12613C4.64215 7.62108 6.0144 7.34886 6.92664 6.43663C7.83888 5.52439 8.11109 4.15213 7.61615 2.96075Z" fill="#6D7379"/>
<path d="M3.06 4.91665C3.33614 4.91665 3.56 4.6928 3.56 4.41665C3.56 3.65082 4.18083 3.02999 4.94667 3.02999C5.22281 3.02999 5.44667 2.80613 5.44667 2.52999C5.44667 2.25385 5.22281 2.02999 4.94667 2.02999C4.31191 2.03175 3.70386 2.2856 3.25628 2.73569C2.80869 3.18578 2.55823 3.79524 2.56 4.42999C2.56176 4.56083 2.61543 4.68562 2.7092 4.77689C2.80297 4.86816 2.92916 4.91843 3.06 4.91665Z" fill="#6D7379"/>
</svg>
