<svg width="22" height="18" viewBox="0 0 22 18" fill="none" xmlns="http://www.w3.org/2000/svg">
<path fill-rule="evenodd" clip-rule="evenodd" d="M8.20109 2.47146e-07H8.29891C9.90118 -1.19718e-05 11.1705 -2.1629e-05 12.1748 0.11868C13.2057 0.240545 14.0544 0.496383 14.7634 1.0782C15.0039 1.27558 15.2244 1.49612 15.4218 1.73663C16.0036 2.44558 16.2595 3.29428 16.3813 4.32525C16.4087 4.55698 16.4298 4.80283 16.446 5.06364C17.232 4.67192 17.898 4.35005 18.4532 4.16841C19.1046 3.95525 19.7956 3.86922 20.4329 4.26309C21.0702 4.65695 21.3023 5.31347 21.4029 5.99146C21.5001 6.64558 21.5 7.50723 21.5 8.54243V8.95757C21.5 9.99277 21.5001 10.8544 21.4029 11.5085C21.3023 12.1865 21.0702 12.843 20.4329 13.2369C19.7956 13.6308 19.1046 13.5448 18.4532 13.3316C17.898 13.1499 17.232 12.8281 16.446 12.4364C16.4298 12.6972 16.4087 12.943 16.3813 13.1748C16.2595 14.2057 16.0036 15.0544 15.4218 15.7634C15.2244 16.0039 15.0039 16.2244 14.7634 16.4218C14.0544 17.0036 13.2057 17.2595 12.1748 17.3813C11.1705 17.5 9.9012 17.5 8.29895 17.5H8.20105C6.59881 17.5 5.32946 17.5 4.32525 17.3813C3.29428 17.2595 2.44558 17.0036 1.73663 16.4218C1.49612 16.2244 1.27558 16.0039 1.0782 15.7634C0.496383 15.0544 0.240545 14.2057 0.11868 13.1748C-2.1629e-05 12.1705 -1.19718e-05 10.9012 2.47146e-07 9.29891V8.20109C-1.19718e-05 6.59882 -2.1629e-05 5.32947 0.11868 4.32525C0.240545 3.29428 0.496383 2.44558 1.0782 1.73663C1.27558 1.49612 1.49612 1.27558 1.73663 1.0782C2.44558 0.496383 3.29428 0.240545 4.32525 0.11868C5.32947 -2.1629e-05 6.59883 -1.19718e-05 8.20109 2.47146e-07ZM15 9.25V8.25C15 6.58789 14.9988 5.40724 14.8917 4.50133C14.7866 3.61197 14.5884 3.08563 14.2623 2.68822C14.1272 2.52366 13.9763 2.37277 13.8118 2.23772C13.4144 1.91158 12.888 1.71344 11.9987 1.60831C11.0928 1.50123 9.91211 1.5 8.25 1.5C6.58789 1.5 5.40724 1.50123 4.50133 1.60831C3.61197 1.71344 3.08563 1.91158 2.68822 2.23772C2.52366 2.37277 2.37277 2.52366 2.23772 2.68822C1.91158 3.08563 1.71344 3.61197 1.60831 4.50133C1.50123 5.40724 1.5 6.58789 1.5 8.25V9.25C1.5 10.9121 1.50123 12.0928 1.60831 12.9987C1.71344 13.888 1.91158 14.4144 2.23772 14.8118C2.37277 14.9763 2.52366 15.1272 2.68822 15.2623C3.08563 15.5884 3.61197 15.7866 4.50133 15.8917C5.40724 15.9988 6.58789 16 8.25 16C9.91211 16 11.0928 15.9988 11.9987 15.8917C12.888 15.7866 13.4144 15.5884 13.8118 15.2623C13.9763 15.1272 14.1272 14.9763 14.2623 14.8118C14.5884 14.4144 14.7866 13.888 14.8917 12.9987C14.9988 12.0928 15 10.9121 15 9.25ZM16.5 10.7865L16.7438 10.9084C17.7392 11.4061 18.4098 11.7391 18.9197 11.906C19.419 12.0694 19.5702 12.0067 19.6443 11.9609C19.7184 11.9151 19.842 11.8079 19.9192 11.2882C19.998 10.7576 20 10.0088 20 8.8959V8.6041C20 7.49122 19.998 6.74243 19.9192 6.21179C19.842 5.69208 19.7184 5.58487 19.6443 5.53906C19.5702 5.49326 19.419 5.43063 18.9197 5.59403C18.4098 5.76086 17.7392 6.09395 16.7438 6.59164L16.5 6.71353V8.11649C16.5 8.14459 16.5 8.17279 16.5 8.20109V9.29891C16.5 9.32722 16.5 9.35542 16.5 9.38351V10.7865Z" fill="#05162C"/>
</svg>
