<svg width="24" height="24" viewBox="0 0 24 24" fill="none" xmlns="http://www.w3.org/2000/svg">
<path d="M0.96 4.46387C0.429912 4.46387 0 4.89366 0 5.42387V18.5759C0 19.1061 0.430128 19.5359 0.96 19.5359H23.04C23.5701 19.5359 24 19.1061 24 18.5759V5.42387C24 4.89368 23.5699 4.46387 23.04 4.46387H0.96ZM14.334 8.95561C14.9181 8.95561 15.3862 9.08464 15.6847 9.20461L15.4807 10.4879L15.3457 10.4196C15.0677 10.2996 14.7105 10.1842 14.2177 10.1924C13.6279 10.1924 13.3553 10.4555 13.3553 10.7016C13.3518 10.979 13.6739 11.1619 14.2005 11.4359C15.0697 11.8585 15.4714 12.371 15.4658 13.0446C15.4541 14.2738 14.426 15.0681 12.8423 15.0681C12.1666 15.0607 11.5156 14.9176 11.1637 14.7524L11.3753 13.4264L11.5695 13.5209C12.0643 13.742 12.3847 13.8314 12.9877 13.8314C13.4208 13.8314 13.8856 13.6501 13.8893 13.2531C13.8921 12.9939 13.695 12.8091 13.1085 12.5189C12.537 12.2356 11.7794 11.761 11.7878 10.9101C11.7967 9.75906 12.8453 8.95561 14.334 8.95561ZM2.12249 9.14387H4.55474C4.88227 9.15625 5.1467 9.26171 5.238 9.61712L5.76226 12.3231C5.76233 12.3234 5.76216 12.3243 5.76226 12.3246L5.91974 13.1354L7.39649 9.14387H8.994L6.61949 14.9864L5.02349 14.9879L3.753 10.2734C4.50895 10.6738 5.15254 11.1372 5.52526 11.7749C5.42916 11.5731 5.30254 11.3453 5.14051 11.1209C4.95182 10.8595 4.54433 10.5219 4.374 10.3784C3.78048 9.87803 2.97444 9.47394 2.10374 9.26012L2.12249 9.14387ZM9.62926 9.15061H11.1915L10.2142 14.9841H8.652L9.62926 9.15061ZM18.453 9.15061H19.6365L20.8755 14.9841H19.455C19.455 14.9841 19.3141 14.3139 19.2683 14.1096C19.045 14.1096 17.4834 14.1074 17.3077 14.1074C17.2483 14.2653 16.9853 14.9841 16.9853 14.9841H15.378L17.6513 9.63512C17.8122 9.25501 18.0865 9.15061 18.453 9.15061ZM18.5693 10.7196C18.4924 10.9366 18.3585 11.287 18.3675 11.2716C18.3675 11.2716 17.8866 12.5542 17.7608 12.8871L19.0245 12.8864C18.9071 12.3301 18.7896 11.7739 18.672 11.2177L18.5693 10.7197V10.7196Z" fill="#145DB8"/>
</svg>
